<?xml version="1.0" encoding="UTF-8"?>
<svg width="120" height="40" viewBox="0 0 120 40" xmlns="http://www.w3.org/2000/svg">
    <!-- Bitcoin -->
    <g transform="translate(0,0)">
        <circle cx="20" cy="20" r="18" fill="#F7931A"/>
        <path d="M28.5 17.5c.3-2-1.2-3-3.2-3.8l.7-2.6-1.6-.4-.6 2.5c-.4-.1-.8-.2-1.3-.3l.6-2.5-1.6-.4-.7 2.6c-.3-.1-.7-.2-1-.2v-.1l-2.2-.5-.4 1.7s1.2.3 1.2.3c.7.2.8.6.8 1l-.8 3.2c0 .1.1.2.2.2h-.2l-1.1 4.5c-.1.2-.3.5-.8.4.1.1-1.2-.3-1.2-.3l-.8 1.9 2.1.5c.4.1.8.2 1.1.3l-.7 2.6 1.6.4.7-2.6c.4.1.9.2 1.3.3l-.7 2.6 1.6.4.7-2.6c2.7.5 4.7.3 5.5-2.1.7-1.9 0-3-1.4-3.7 1-.2 1.8-.9 2-2.2zm-3.5 4.8c-.5 1.9-3.7.9-4.7.6l.8-3.3c1 .3 4.4.8 3.9 2.7zm.5-4.9c-.4 1.7-3.1.9-4 .6l.8-3c.9.2 3.7.7 3.2 2.4z" fill="white"/>
    </g>
    
    <!-- Ethereum -->
    <g transform="translate(40,0)">
        <circle cx="20" cy="20" r="18" fill="#627EEA"/>
        <path d="M20.4 6v10.4l8.8 3.9-8.8-14.3z" fill="white" fill-opacity="0.6"/>
        <path d="M20.4 6L11.6 20.3l8.8-3.9V6z" fill="white"/>
        <path d="M20.4 27.5v6.5l8.8-12.2-8.8 5.7z" fill="white" fill-opacity="0.6"/>
        <path d="M20.4 34v-6.5l-8.8-5.7 8.8 12.2z" fill="white"/>
        <path d="M20.4 25.8l8.8-5.7-8.8-3.9v9.6z" fill="white" fill-opacity="0.2"/>
        <path d="M11.6 20.1l8.8 5.7v-9.6l-8.8 3.9z" fill="white" fill-opacity="0.6"/>
    </g>
    
    <!-- USDT -->
    <g transform="translate(80,0)">
        <circle cx="20" cy="20" r="18" fill="#26A17B"/>
        <path d="M20 6.5c-7.5 0-13.5 6-13.5 13.5s6 13.5 13.5 13.5 13.5-6 13.5-13.5-6-13.5-13.5-13.5zm0 24.3c-5.9 0-10.8-4.8-10.8-10.8S14.1 9.2 20 9.2s10.8 4.8 10.8 10.8-4.9 10.8-10.8 10.8z" fill="white"/>
        <path d="M20 11.9c-4.9 0-8.9 4-8.9 8.9s4 8.9 8.9 8.9 8.9-4 8.9-8.9-4-8.9-8.9-8.9zm0 15.7c-3.8 0-6.8-3.1-6.8-6.8s3.1-6.8 6.8-6.8 6.8 3.1 6.8 6.8-3 6.8-6.8 6.8z" fill="white"/>
        <path d="M20 14.6c-3.4 0-6.2 2.8-6.2 6.2s2.8 6.2 6.2 6.2 6.2-2.8 6.2-6.2-2.8-6.2-6.2-6.2zm0 10.3c-2.3 0-4.1-1.8-4.1-4.1s1.8-4.1 4.1-4.1 4.1 1.8 4.1 4.1-1.8 4.1-4.1 4.1z" fill="white"/>
    </g>
</svg>
